<svg width="27" height="27" viewBox="0 0 27 27" fill="none" xmlns="http://www.w3.org/2000/svg">
<g clip-path="url(#clip0_56_347)">
<path d="M13.25 -0.0996094C18.7031 -0.0996094 23.1396 4.33602 23.1396 9.78906C23.1396 11.1385 22.6875 12.5602 22.4473 13.2207L22.3018 13.5967C22.042 14.2133 21.5313 15.1681 21.1611 15.7295L14.4492 25.8994C14.1593 26.3389 13.7233 26.5996 13.25 26.5996C12.7768 26.5996 12.3407 26.3395 12.0508 25.8994L5.33887 15.7295C5.01555 15.2384 4.58449 14.4462 4.30762 13.8428L4.19922 13.5967C4.16598 13.5165 3.36133 11.5881 3.36133 9.78906C3.36141 4.33607 7.79701 -0.099523 13.25 -0.0996094ZM13.25 1.25195C8.54261 1.25204 4.71298 5.08167 4.71289 9.78906C4.71289 11.3029 5.43279 13.0421 5.44531 13.0723L5.65527 13.5303C5.89856 14.0288 6.22371 14.6152 6.46777 14.9854L13.1807 25.1553C13.211 25.2013 13.2332 25.2309 13.25 25.249C13.2669 25.2309 13.2897 25.2017 13.3203 25.1553L20.0332 14.9854C20.3587 14.4917 20.8284 13.614 21.0557 13.0723V13.0713C21.0559 13.0707 21.059 13.0641 21.0645 13.0508C21.0701 13.0369 21.0786 13.0163 21.0889 12.9902C21.1093 12.9381 21.1383 12.8626 21.1729 12.7676C21.242 12.5774 21.3335 12.3094 21.4248 11.9941C21.6078 11.362 21.7881 10.5458 21.7881 9.78906C21.788 5.08162 17.9575 1.25195 13.25 1.25195Z" fill="white" stroke="white" stroke-width="0.2"/>
<path d="M13.25 4.50586C16.1631 4.50591 18.5322 6.87559 18.5322 9.78809C18.5322 12.7005 16.163 15.0703 13.25 15.0703C10.3369 15.0703 7.96782 12.7006 7.96777 9.78809C7.96777 6.87556 10.3369 4.50586 13.25 4.50586ZM13.25 5.85742C11.0831 5.85742 9.31934 7.62059 9.31934 9.78809C9.31938 11.9555 11.0831 13.7188 13.25 13.7188C15.4169 13.7187 17.1806 11.9555 17.1807 9.78809C17.1807 7.62062 15.4169 5.85747 13.25 5.85742Z" fill="white" stroke="white" stroke-width="0.2"/>
</g>
<defs>
<clipPath id="clip0_56_347">
<rect width="26.5" height="26.5" fill="white"/>
</clipPath>
</defs>
</svg>
